<!--?xml version="1.0" standalone="no"?-->
              <svg id="sw-js-blob-svg" viewBox="0 0 100 100" xmlns="http://www.w3.org/2000/svg" version="1.1">
                    <defs> 
                        <linearGradient id="sw-gradient" x1="0" x2="1" y1="1" y2="0">
                            <stop id="stop1" stop-color="rgba(3, 200, 152, 1)" offset="0%"></stop>
                            <stop id="stop2" stop-color="rgba(6, 97, 155, 1)" offset="100%"></stop>
                        </linearGradient>
                    </defs>
                <path fill="url(#sw-gradient)" d="M28.8,-34.3C36.5,-27.8,41.5,-18,42,-8.4C42.4,1.1,38.4,10.5,33.5,19.6C28.5,28.8,22.8,37.7,14.4,41.6C6.1,45.5,-4.8,44.4,-14.3,40.4C-23.8,36.5,-31.8,29.7,-37.3,21.1C-42.8,12.4,-45.8,1.9,-44,-7.6C-42.1,-17.1,-35.3,-25.5,-27.2,-32C-19,-38.5,-9.5,-43.1,0.5,-43.7C10.5,-44.3,21,-40.9,28.8,-34.3Z" width="100%" height="100%" transform="translate(50 50)" stroke-width="0" style="transition: all 0.3s ease 0s;"></path>
              </svg>